<?xml version="1.0" encoding="utf-8"?>
<!-- Generator: Adobe Illustrator 23.0.6, SVG Export Plug-In . SVG Version: 6.00 Build 0)  -->
<svg version="1.1" id="Layer_1" xmlns="http://www.w3.org/2000/svg" xmlns:xlink="http://www.w3.org/1999/xlink" x="0px" y="0px"
	 viewBox="0 0 825.15 240.22" style="enable-background:new 0 0 825.15 240.22;" xml:space="preserve">
<style type="text/css">
	.st0{fill:#0054A4;}
</style>
<g>
	<path class="st0" d="M94.67,92.3H41.79c-0.87,0-1.3,0.14-1.3,1.3c0,15.32,8.38,20.08,25.29,20.08c5.35,0,11.7-0.58,18.79-1.31
		c0.14,0,0.29,0,0.43,0c0.58,0,1.01,0.15,1.01,1.16c0,0,0,0.15,0,0.29l-1.44,11.12c-0.29,1.16-0.72,1.16-1.59,1.45
		c-7.22,1.16-18.78,1.88-24.13,1.88c-25.72,0-44.21-9.39-44.21-42.91c0-28.9,15.75-42.77,41.18-42.77
		c31.5,0,40.31,16.62,40.31,48.11C96.11,91.86,95.53,92.3,94.67,92.3z M55.65,56.32c-13.15,0-15.89,9.83-15.89,21.53
		c0,1.3,0.29,1.59,1.3,1.59h28.75c1.01,0,1.59-0.14,1.59-1.44C71.4,66,69.1,56.32,55.65,56.32z"/>
	<path class="st0" d="M195.38,125.67c0,0.43-0.43,0.87-1.01,0.87h-23.84c-0.87,0-1.45-0.43-1.88-1.16l-19.07-33.95
		c-0.29-0.43-0.58-0.87-1.15-0.87h-0.29c-0.43,0-0.87,0.43-1.01,0.72l-19.22,34.1c-0.43,0.72-1.01,1.16-1.88,1.16h-21.96
		c-0.72,0-1.15-0.43-1.15-1.01c0-0.15,0-0.29,0.14-0.44l23.84-42.34l-20.95-37.28c-0.14-0.15-0.14-0.29-0.14-0.58
		c0-0.43,0.43-0.86,1.15-0.86h22.97c0.87,0,1.45,0.58,1.73,1.01l16.76,31.79c0.29,0.58,1.01,0.87,1.59,0.87
		c0.58,0,1.01-0.29,1.44-0.87l17.05-31.79c0.43-0.72,1.01-1.01,1.74-1.01h20.51c0.72,0,1.16,0.43,1.16,0.86
		c0,0.15-0.14,0.29-0.14,0.43l-20.66,36.85l24.13,42.77C195.38,125.24,195.38,125.39,195.38,125.67z"/>
	<path class="st0" d="M248.69,127.27c-3.9,0-10.54-1.01-14.16-1.88c-1.01,0-1.3,0.29-1.3,1.45v25.72c0,0.87-0.58,1.59-1.73,1.74
		l-20.81,1.44c-0.87,0-1.59-0.72-1.59-1.73c0-15.61,0-70.8,0-104.9c0-1.01,0.72-2.17,2.17-2.46c10.84-1.59,26.73-3.61,37.57-3.61
		c27.88,0,42.33,12.72,42.33,40.46C291.18,112.67,274.27,127.27,248.69,127.27z M244.94,56.9c-3.32,0-7.08,0.14-10.11,0.43
		c-1.01,0-1.73,0.58-1.73,1.59v52.01c0,0.87,0.58,1.3,1.44,1.59c2.31,0.29,6.5,0.72,9.54,0.72c13.3,0,22.69-7.51,22.69-28.32
		C266.76,64.41,259.24,56.9,244.94,56.9z"/>
	<path class="st0" d="M382.2,123.08c0,1.01-0.29,1.73-1.73,2.02c-10.99,1.3-24.57,3.18-37,3.18c-22.83,0-39.16-6.21-39.16-28.32
		c0-21.67,15.89-26.87,34.25-26.87c5.64,0,15.03,1.01,19.65,1.59c0-13.01-5.06-18.21-21.67-18.21c-5.49,0-13.01,0.58-19.22,1.01
		c-0.15,0-0.29,0-0.43,0c-1.01,0-1.3-0.43-1.59-1.29l-1.3-10.41c0-0.14,0-0.14,0-0.29c0-0.58,0.43-0.87,1.16-1.16
		c7.51-0.87,20.08-1.74,29.33-1.74c22.97,0,37.71,8.24,37.71,31.36V123.08z M358.51,87.68c0-0.87-0.29-1.16-1.45-1.16h-10.98
		c-11.41,0-17.48,2.75-17.48,12.71c0,10.69,6.22,14.02,17.48,14.02h10.84c1.3,0,1.59-0.44,1.59-1.45V87.68z"/>
	<path class="st0" d="M447.81,125.24c-0.28,0.87-0.87,1.16-1.74,1.45c-7.08,0.58-11.12,0.87-16.62,0.87
		c-14.59,0-21.96-6.21-21.96-21.82v-47.4c0-1.01-0.29-1.45-1.3-1.45h-8.67c-0.86,0-1.44-0.58-1.44-1.44V45.34
		c0-0.86,0.44-1.3,1.59-1.3h8.52c1.01,0,1.3-0.58,1.3-1.59l0.15-19.07c0-0.87,0.43-1.3,1.44-1.45l21.1-1.3c1.01,0,1.3,0.29,1.3,1.45
		v20.52c0,0.87,0.44,1.45,1.59,1.45h11.28c1.15,0,1.59,0.43,1.59,1.45v9.97c0,0.87-0.43,1.3-1.45,1.3h-11.41
		c-1.01,0-1.59,0.58-1.59,1.59v44.94c0,7.8,3.47,9.97,11.41,9.97c2.6,0,1.15,0,4.91,0c0.73,0,1.3,0.58,1.3,1.3v0.15L447.81,125.24z"
		/>
	<path class="st0" d="M507.78,56.75c-6.21,0.14-10.84,0.58-17.34,1.01c-0.87,0-1.3,0.58-1.3,1.3v65.88c0,1.16-0.43,1.59-1.44,1.59
		h-21.1c-0.87,0-1.44-0.43-1.44-1.44V48.52c0-1.01,0.43-1.59,1.44-1.88c9.82-1.3,29.91-2.89,41.47-3.32c0.87,0,1.3,0.58,1.3,1.45
		v10.69C509.37,56.18,508.79,56.75,507.78,56.75z"/>
	<path class="st0" d="M550.11,29.01c0,1.01-0.29,1.44-1.45,1.44h-21.24c-1.01,0-1.3-0.43-1.3-1.44V17.02c0-1.01,0.29-1.44,1.3-1.44
		h21.1c1.16,0,1.59,0.43,1.59,1.44V29.01z M548.66,126.54h-21.24c-0.87,0-1.3-0.43-1.3-1.44V45.49c0-1.01,0.29-1.45,1.3-1.45h21.1
		c1.16,0,1.59,0.43,1.59,1.3v79.76C550.11,126.11,549.82,126.54,548.66,126.54z"/>
	<path class="st0" d="M645.91,123.08c0,1.01-0.29,1.73-1.74,2.02c-10.98,1.3-24.56,3.18-36.99,3.18c-22.82,0-39.16-6.21-39.16-28.32
		c0-21.67,15.89-26.87,34.24-26.87c5.63,0,15.03,1.01,19.65,1.59c0-13.01-5.06-18.21-21.68-18.21c-5.49,0-13,0.58-19.21,1.01
		c-0.14,0-0.29,0-0.43,0c-1.01,0-1.3-0.43-1.59-1.29l-1.3-10.41c0-0.14,0-0.14,0-0.29c0-0.58,0.43-0.87,1.15-1.16
		c7.52-0.87,20.09-1.74,29.34-1.74c22.97,0,37.71,8.24,37.71,31.36V123.08z M622.21,87.68c0-0.87-0.29-1.16-1.45-1.16h-10.98
		c-11.42,0-17.48,2.75-17.48,12.71c0,10.69,6.21,14.02,17.48,14.02h10.83c1.3,0,1.59-0.44,1.59-1.45V87.68z"/>
	<path class="st0" d="M711.51,125.24c-0.29,0.87-0.87,1.16-1.73,1.45c-7.08,0.58-11.13,0.87-16.62,0.87
		c-14.6,0-21.96-6.21-21.96-21.82v-47.4c0-1.01-0.29-1.45-1.3-1.45h-8.67c-0.87,0-1.45-0.58-1.45-1.44V45.34
		c0-0.86,0.44-1.3,1.6-1.3h8.52c1.01,0,1.3-0.58,1.3-1.59l0.14-19.07c0-0.87,0.43-1.3,1.45-1.45l21.09-1.3c1.01,0,1.3,0.29,1.3,1.45
		v20.52c0,0.87,0.44,1.45,1.59,1.45h11.27c1.15,0,1.59,0.43,1.59,1.45v9.97c0,0.87-0.43,1.3-1.44,1.3h-11.42
		c-1.01,0-1.59,0.58-1.59,1.59v44.94c0,7.8,3.47,9.97,11.42,9.97c2.6,0,1.16,0,4.91,0c0.72,0,1.3,0.58,1.3,1.3v0.15L711.51,125.24z"
		/>
	<path class="st0" d="M802.53,92.3h-52.89c-0.87,0-1.3,0.14-1.3,1.3c0,15.32,8.39,20.08,25.29,20.08c5.34,0,11.71-0.58,18.79-1.31
		c0.14,0,0.29,0,0.43,0c0.58,0,1.02,0.15,1.02,1.16c0,0,0,0.15,0,0.29l-1.45,11.12c-0.29,1.16-0.72,1.16-1.59,1.45
		c-7.22,1.16-18.78,1.88-24.13,1.88c-25.71,0-44.21-9.39-44.21-42.91c0-28.9,15.75-42.77,41.18-42.77
		c31.5,0,40.32,16.62,40.32,48.11C803.98,91.86,803.4,92.3,802.53,92.3z M763.52,56.32c-13.14,0-15.9,9.83-15.9,21.53
		c0,1.3,0.29,1.59,1.3,1.59h28.76c1.01,0,1.59-0.14,1.59-1.44C779.27,66,776.96,56.32,763.52,56.32z"/>
</g>
<g>
	<path class="st0" d="M621.3,192.44h15.42v21.03c-2.52,0.82-4.94,1.4-7.26,1.75c-2.32,0.34-4.83,0.52-7.52,0.52
		c-6.34,0-11.23-1.88-14.67-5.63c-3.44-3.75-5.16-9.05-5.16-15.89c0-6.74,1.94-12.02,5.82-15.83c3.88-3.81,9.22-5.72,16.02-5.72
		c4.37,0,8.52,0.84,12.44,2.52l-2.41,5.7c-3.4-1.57-6.8-2.35-10.2-2.35c-4.47,0-8,1.4-10.6,4.21c-2.6,2.81-3.9,6.65-3.9,11.52
		c0,5.12,1.17,9.01,3.51,11.68c2.34,2.67,5.71,4,10.1,4c2.22,0,4.58-0.28,7.11-0.83v-10.8h-8.68V192.44z"/>
	<path class="st0" d="M653.63,198.43v16.73h-6.85v-41.89h11.83c5.41,0,9.41,1.01,12.01,3.04c2.6,2.03,3.9,5.08,3.9,9.17
		c0,5.22-2.71,8.93-8.14,11.15l11.83,18.54h-7.79l-10.03-16.73H653.63z M653.63,192.75h4.76c3.19,0,5.5-0.59,6.93-1.78
		c1.43-1.18,2.15-2.94,2.15-5.27c0-2.37-0.77-4.07-2.32-5.1c-1.55-1.03-3.88-1.55-6.99-1.55h-4.53V192.75z"/>
	<path class="st0" d="M721.48,194.16c0,6.82-1.7,12.12-5.12,15.9c-3.41,3.78-8.24,5.67-14.48,5.67c-6.32,0-11.18-1.88-14.57-5.63
		c-3.39-3.75-5.09-9.09-5.09-16c0-6.91,1.7-12.23,5.12-15.93c3.41-3.71,8.28-5.56,14.6-5.56c6.23,0,11.04,1.88,14.44,5.64
		C719.78,182.02,721.48,187.32,721.48,194.16z M689.5,194.16c0,5.16,1.04,9.07,3.12,11.73c2.08,2.67,5.17,4,9.26,4
		c4.07,0,7.14-1.32,9.21-3.95c2.07-2.64,3.11-6.56,3.11-11.78c0-5.14-1.03-9.04-3.08-11.69c-2.05-2.65-5.12-3.98-9.18-3.98
		c-4.11,0-7.21,1.33-9.3,3.98C690.55,185.12,689.5,189.02,689.5,194.16z"/>
	<path class="st0" d="M763.31,173.27v27.11c0,3.09-0.66,5.8-1.99,8.12c-1.33,2.32-3.25,4.11-5.76,5.36
		c-2.51,1.25-5.52,1.88-9.01,1.88c-5.2,0-9.24-1.38-12.12-4.13c-2.88-2.75-4.33-6.53-4.33-11.35v-26.99h6.88v26.51
		c0,3.46,0.8,6.01,2.41,7.65c1.6,1.64,4.07,2.46,7.39,2.46c6.46,0,9.69-3.39,9.69-10.17v-26.45H763.31z"/>
	<path class="st0" d="M801.77,185.93c0,4.37-1.43,7.73-4.3,10.06c-2.87,2.33-6.94,3.5-12.24,3.5h-4.36v15.67h-6.85v-41.89h12.06
		c5.23,0,9.16,1.07,11.76,3.21C800.47,178.62,801.77,181.77,801.77,185.93z M780.88,193.73h3.64c3.52,0,6.09-0.61,7.74-1.83
		c1.64-1.22,2.46-3.13,2.46-5.73c0-2.41-0.74-4.2-2.21-5.39c-1.47-1.18-3.76-1.78-6.88-1.78h-4.76V193.73z"/>
</g>
</svg>
